<svg xmlns="http://www.w3.org/2000/svg" width="1.4in" height="1.4in" viewBox="0 0 100.9 100.9"><circle cx="50.5" cy="50.5" r="50.5" fill="#3c6d88"/><path fill="#fff" d="M41.5 54.4l18.1-18.7 18.2 18.8L91.9 40a40.7 40.7 0 0 0-7.1-14.8l-7 7.2-18.2-18.7-18.1 18.6-16-16.5A42.8 42.8 0 0 0 7.8 50.5v1.4l15.7-16.2z"/><path fill="#fff" d="M93.2 50.5c0-.4-.1-.7-.1-1L77.8 65.3 59.6 46.6 41.5 65.2 23.6 46.7l-.6.4L9.2 61.4A41.3 41.3 0 0 0 16.3 76l7.2-7.4 18 18.6 18.1-18.6L75.5 85a42.5 42.5 0 0 0 17.7-34.5z"/></svg>