<svg xmlns="http://www.w3.org/2000/svg" width="1.4in" height="1.4in" viewBox="0 0 100.9 100.9"><path fill="#3c6d88" d="M50.5 0h-3.1a50.3 50.3 0 1 0 3.1 0zm17.7 30.4h-7.1c-3.2.1-4.9 1.7-5 4.9s0 5.9 0 8.9h11.5c.9 0 1 .1.9 1L67 56.4c-.1.7-.3.9-.9.9h-10v29.5a52.7 52.7 0 0 1-5.6.4 46.7 46.7 0 0 1-7.6-.7V57.2H32.7c-.5.1-.8 0-.8-.7V45.1c0-.7.3-.7.8-.7h10.1v-1c0-3.1 0-6.3.1-9.4a15.8 15.8 0 0 1 4.6-11.4 13.4 13.4 0 0 1 8.5-3.9c3.7-.2 7.5 0 11.2.1 1.8.1 1.8.2 1.8 1.9v8.9c0 .6-.2.8-.8.8z"/><path fill="#fff" d="M69 20.7c0-1.7 0-1.8-1.8-1.9-3.7-.1-7.5-.3-11.2-.1a13.4 13.4 0 0 0-8.5 3.9A15.8 15.8 0 0 0 42.9 34c-.1 3.1-.1 6.3-.1 9.4v1H32.7c-.5 0-.8 0-.8.7v11.4c0 .7.3.8.8.7h10.2v29.3a46.7 46.7 0 0 0 7.6.7 52.7 52.7 0 0 0 5.6-.4V57.2h10c.6 0 .8-.2.9-.9l1.5-11c.1-.9 0-1-.9-1H56.1c0-3-.1-6 0-8.9s1.8-4.8 5-4.9h7.1c.6 0 .8-.2.8-.8z"/><path d="M50.5 0zm-2.1.1z"/></svg>