<svg xmlns="http://www.w3.org/2000/svg"><symbol id="cancel-button" viewBox="0 0 100.9 100.9"><circle cx="50.5" cy="50.5" r="50.5" fill="#cb6161"/><path fill="#fff" d="M87.2 71.1l-19.1-19-1.8-1.9a16.3 16.3 0 0 0 1.8-1.4l19.1-19a41.9 41.9 0 0 0-16.1-16C64.8 20.2 58.4 26.6 52 32.9l-1.5 1.5-1.6-1.5-19.1-19.1a41 41 0 0 0-16 16l19.3 19.3 1.5 1.7a14 14 0 0 0-1.8 1.3l-19 19a41.9 41.9 0 0 0 16 16.1l19-19.1a10.4 10.4 0 0 0 1.2-1.7h.9c.5.6.9 1.3 1.5 1.9l18.8 18.9a43.4 43.4 0 0 0 16-16.1z"/></symbol><symbol id="aquarius-symbol" viewBox="0 0 100.9 100.9"><circle cx="50.5" cy="50.5" r="50.5" fill="#3c6d88"/><path fill="#fff" d="M41.5 54.4l18.1-18.7 18.2 18.8L91.9 40a40.7 40.7 0 0 0-7.1-14.8l-7 7.2-18.2-18.7-18.1 18.6-16-16.5A42.8 42.8 0 0 0 7.8 50.5v1.4l15.7-16.2z"/><path fill="#fff" d="M93.2 50.5c0-.4-.1-.7-.1-1L77.8 65.3 59.6 46.6 41.5 65.2 23.6 46.7l-.6.4L9.2 61.4A41.3 41.3 0 0 0 16.3 76l7.2-7.4 18 18.6 18.1-18.6L75.5 85a42.5 42.5 0 0 0 17.7-34.5z"/></symbol><symbol id="facebook-icon" viewBox="0 0 100.9 100.9"><path fill="#3c6d88" d="M50.5 0h-3.1a50.3 50.3 0 1 0 3.1 0zm17.7 30.4h-7.1c-3.2.1-4.9 1.7-5 4.9s0 5.9 0 8.9h11.5c.9 0 1 .1.9 1L67 56.4c-.1.7-.3.9-.9.9h-10v29.5a52.7 52.7 0 0 1-5.6.4 46.7 46.7 0 0 1-7.6-.7V57.2H32.7c-.5.1-.8 0-.8-.7V45.1c0-.7.3-.7.8-.7h10.1v-1c0-3.1 0-6.3.1-9.4a15.8 15.8 0 0 1 4.6-11.4 13.4 13.4 0 0 1 8.5-3.9c3.7-.2 7.5 0 11.2.1 1.8.1 1.8.2 1.8 1.9v8.9c0 .6-.2.8-.8.8z"/><path fill="#fff" d="M69 20.7c0-1.7 0-1.8-1.8-1.9-3.7-.1-7.5-.3-11.2-.1a13.4 13.4 0 0 0-8.5 3.9A15.8 15.8 0 0 0 42.9 34c-.1 3.1-.1 6.3-.1 9.4v1H32.7c-.5 0-.8 0-.8.7v11.4c0 .7.3.8.8.7h10.2v29.3a46.7 46.7 0 0 0 7.6.7 52.7 52.7 0 0 0 5.6-.4V57.2h10c.6 0 .8-.2.9-.9l1.5-11c.1-.9 0-1-.9-1H56.1c0-3-.1-6 0-8.9s1.8-4.8 5-4.9h7.1c.6 0 .8-.2.8-.8z"/><path d="M50.5 0zm-2.1.1z"/></symbol><symbol id="burger-icon" viewBox="0 0 100.9 100.9"><circle cx="50.5" cy="50.5" r="50.5" fill="#84a3a5"/><path fill="#fff" d="M89.1 31.6v-.3a43.9 43.9 0 0 0-13.5-15.8H25.3a43.2 43.2 0 0 0-13.5 15.9v.2zM93 43.5H7.9a53.6 53.6 0 0 0-.5 7 42.4 42.4 0 0 0 .9 8.8h84.3a42.4 42.4 0 0 0 1-8.8 40.5 40.5 0 0 0-.6-7zm-4.7 27.6H12.6a43.8 43.8 0 0 0 15.3 16.1h45.2a44.3 44.3 0 0 0 15.2-16.1z"/></symbol><symbol id="gemini-symbol" viewBox="0 0 100.9 100.9"><circle cx="50.5" cy="50.5" r="50.5" fill="#3c6d88"/><path fill="#fff" d="M77.5 70.9l-3.3-.6V31.6c0-.5.2-.7.7-.8l1.5-.3 5.5-1.3 5.3-1.4A44.3 44.3 0 0 0 76.6 16l-2.2.4-2.8.5-4.7.7-4.1.4c-2 .2-4 .4-6 .4H41.6l-3.3-.2-4.6-.4-3.3-.4-4-.6-2.1-.4a42.4 42.4 0 0 0-10.6 12h.2l2 .5 2.8.7 3.1.6 3 .6c1 .1 1.1.2 1.1 1.1v32.5c0 1.7-.1 3.4 0 5.1s-.3.7-.8.8h-.9l-3.5.7-3.3.8-2.9.7a43.4 43.4 0 0 0 11.3 12.2 140.2 140.2 0 0 1 49.2.2 44.5 44.5 0 0 0 11.5-11.8l-4.9-1.3zm-21-2.6H44.4c-.6 0-.7-.2-.7-.7v-34c0-.8 0-.8.9-.8h11.9z"/></symbol><symbol id="instagram-icon" viewBox="0 0 100.9 100.9"><path fill="#3c6d88" d="M50.5 32.6a17.9 17.9 0 1 0 17.8 17.9 17.9 17.9 0 0 0-17.8-17.9z"/><path fill="#3c6d88" d="M50.4.1a50.4 50.4 0 1 0 50.4 50.4A50.4 50.4 0 0 0 50.4.1zm.1 76.2a25.9 25.9 0 1 1 25.8-25.8 25.9 25.9 0 0 1-25.8 25.8zm28-48.6a5.3 5.3 0 1 1 5.3-5.3 5.2 5.2 0 0 1-5.3 5.3z"/><path fill="#fff" d="M50.5 24.6a25.9 25.9 0 1 0 25.8 25.9 25.9 25.9 0 0 0-25.8-25.9zm0 43.7a17.9 17.9 0 1 1 17.8-17.8 17.9 17.9 0 0 1-17.8 17.8zm28-51.2a5.3 5.3 0 1 0 5.3 5.3 5.2 5.2 0 0 0-5.3-5.3z"/></symbol><symbol id="libra-symbol" viewBox="0 0 100.9 100.9"><circle cx="50.5" cy="50.5" r="50.5" fill="#3c6d88"/><path fill="#fff" d="M76.3 52.8a1.1 1.1 0 0 0 .1-.5c.4-1.2.8-2.4 1.3-3.6a26 26 0 0 0 1-6.8 15.8 15.8 0 0 0-.5-5.7 43.4 43.4 0 0 0-1.4-4.8 26.3 26.3 0 0 0-4.5-7.6 24.3 24.3 0 0 0-4.7-4.4 49.9 49.9 0 0 0-5-2.9 15.8 15.8 0 0 0-3.4-1.3 22.5 22.5 0 0 0-3.5-.9 23.5 23.5 0 0 0-3.7-.5c-1.2-.1-2.4.1-3.6.1a18.2 18.2 0 0 0-5.2.8l-5.1 1.9a15 15 0 0 0-3.2 1.9 37.9 37.9 0 0 0-4 3c-.9.8-1.6 1.8-2.5 2.7a22.8 22.8 0 0 0-3.4 5.3 37.5 37.5 0 0 0-1.6 4.3 17.7 17.7 0 0 0-1.1 6 40.1 40.1 0 0 0 .1 4.9 7.7 7.7 0 0 0 .2 1.5 33.8 33.8 0 0 0 1.7 5.4 5.6 5.6 0 0 1 .4 1.2H24c-2.7 0-11.7.1-16.2 0a41.6 41.6 0 0 0 3.3 14.1h32.4c.3 0 .4-.1.4-.4s.1-2 .2-3c0-3.3-.1-6.7 0-10.1a1.1 1.1 0 0 0-.5-.9 21.1 21.1 0 0 1-2.3-1.9 10.6 10.6 0 0 1-2.9-4.5 10.9 10.9 0 0 1-.9-4.7 15.5 15.5 0 0 1 .4-3.1 10.4 10.4 0 0 1 2.4-5.2 12.8 12.8 0 0 1 5.2-4 10.2 10.2 0 0 1 4.2-.9 16.7 16.7 0 0 1 3.2.2l2.7.8a14.9 14.9 0 0 1 3 1.8 12 12 0 0 1 3.3 4.1 10.6 10.6 0 0 1 1.3 3.9 14 14 0 0 1-.1 5.4 13.1 13.1 0 0 1-1.7 4 14 14 0 0 1-4.2 4.2 1 1 0 0 0-.6.9c.1 4.2 0 8.4 0 12.6 0 .8 0 .8.8.8h32.4a41.6 41.6 0 0 0 3.3-14.1zM14.4 73h-.1a42.8 42.8 0 0 0 14.5 14.2h43.4A43.7 43.7 0 0 0 86.7 73H14.4z"/></symbol><symbol id="youtube-icon" viewBox="0 0 100.9 100.9"><path fill="#3c6d88" d="M50.5 0a50.5 50.5 0 1 0 50.4 50.5A50.5 50.5 0 0 0 50.5 0zM81 76.9a5.7 5.7 0 0 1-4.3 2H24.2a5.3 5.3 0 0 1-4.2-2A40.3 40.3 0 0 1 20 24a5.5 5.5 0 0 1 4.2-1.9h52.5A5.9 5.9 0 0 1 81 24a40.3 40.3 0 0 1 0 52.9z"/><path fill="#fff" d="M81 24a5.9 5.9 0 0 0-4.3-1.9H24.2A5.5 5.5 0 0 0 20 24a40.3 40.3 0 0 0 0 52.9 5.3 5.3 0 0 0 4.2 2h52.5a5.7 5.7 0 0 0 4.3-2A40.3 40.3 0 0 0 81 24zM43.3 66.4V34.6l26.1 15.8z"/><path fill="#3c6d88" d="M43.3 66.4l26.1-16-26.1-15.8z"/></symbol></svg>