<svg xmlns="http://www.w3.org/2000/svg" width="1.4in" height="1.4in" viewBox="0 0 100.9 100.9"><path fill="#3c6d88" d="M50.5 32.6a17.9 17.9 0 1 0 17.8 17.9 17.9 17.9 0 0 0-17.8-17.9z"/><path fill="#3c6d88" d="M50.4.1a50.4 50.4 0 1 0 50.4 50.4A50.4 50.4 0 0 0 50.4.1zm.1 76.2a25.9 25.9 0 1 1 25.8-25.8 25.9 25.9 0 0 1-25.8 25.8zm28-48.6a5.3 5.3 0 1 1 5.3-5.3 5.2 5.2 0 0 1-5.3 5.3z"/><path fill="#fff" d="M50.5 24.6a25.9 25.9 0 1 0 25.8 25.9 25.9 25.9 0 0 0-25.8-25.9zm0 43.7a17.9 17.9 0 1 1 17.8-17.8 17.9 17.9 0 0 1-17.8 17.8zm28-51.2a5.3 5.3 0 1 0 5.3 5.3 5.2 5.2 0 0 0-5.3-5.3z"/></svg>