<svg xmlns="http://www.w3.org/2000/svg" width="1.4in" height="1.4in" viewBox="0 0 100.9 100.9"><circle cx="50.5" cy="50.5" r="50.5" fill="#3c6d88"/><path fill="#fff" d="M76.3 52.8a1.1 1.1 0 0 0 .1-.5c.4-1.2.8-2.4 1.3-3.6a26 26 0 0 0 1-6.8 15.8 15.8 0 0 0-.5-5.7 43.4 43.4 0 0 0-1.4-4.8 26.3 26.3 0 0 0-4.5-7.6 24.3 24.3 0 0 0-4.7-4.4 49.9 49.9 0 0 0-5-2.9 15.8 15.8 0 0 0-3.4-1.3 22.5 22.5 0 0 0-3.5-.9 23.5 23.5 0 0 0-3.7-.5c-1.2-.1-2.4.1-3.6.1a18.2 18.2 0 0 0-5.2.8l-5.1 1.9a15 15 0 0 0-3.2 1.9 37.9 37.9 0 0 0-4 3c-.9.8-1.6 1.8-2.5 2.7a22.8 22.8 0 0 0-3.4 5.3 37.5 37.5 0 0 0-1.6 4.3 17.7 17.7 0 0 0-1.1 6 40.1 40.1 0 0 0 .1 4.9 7.7 7.7 0 0 0 .2 1.5 33.8 33.8 0 0 0 1.7 5.4 5.6 5.6 0 0 1 .4 1.2H24c-2.7 0-11.7.1-16.2 0a41.6 41.6 0 0 0 3.3 14.1h32.4c.3 0 .4-.1.4-.4s.1-2 .2-3c0-3.3-.1-6.7 0-10.1a1.1 1.1 0 0 0-.5-.9 21.1 21.1 0 0 1-2.3-1.9 10.6 10.6 0 0 1-2.9-4.5 10.9 10.9 0 0 1-.9-4.7 15.5 15.5 0 0 1 .4-3.1 10.4 10.4 0 0 1 2.4-5.2 12.8 12.8 0 0 1 5.2-4 10.2 10.2 0 0 1 4.2-.9 16.7 16.7 0 0 1 3.2.2l2.7.8a14.9 14.9 0 0 1 3 1.8 12 12 0 0 1 3.3 4.1 10.6 10.6 0 0 1 1.3 3.9 14 14 0 0 1-.1 5.4 13.1 13.1 0 0 1-1.7 4 14 14 0 0 1-4.2 4.2 1 1 0 0 0-.6.9c.1 4.2 0 8.4 0 12.6 0 .8 0 .8.8.8h32.4a41.6 41.6 0 0 0 3.3-14.1zM14.4 73h-.1a42.8 42.8 0 0 0 14.5 14.2h43.4A43.7 43.7 0 0 0 86.7 73H14.4z"/></svg>