<svg xmlns="http://www.w3.org/2000/svg" width="1.4in" height="1.4in" viewBox="0 0 100.9 100.9"><path fill="#fff" d="M83.5 48.5c-.1-.1-.1-.3-.2-.5s-.2-.3-.2-.5a31.6 31.6 0 0 0-4.4-6.4l-.3-.4A23.5 23.5 0 0 0 59 33.8a27.8 27.8 0 0 0-5 1.1l-3.4 1.6-.6.3a12.7 12.7 0 0 0-5 6.8 13 13 0 0 0-.5 5.2 12.9 12.9 0 0 0 14.3 11.4h1.1a9.5 9.5 0 0 1 5.8 1.2 8.9 8.9 0 0 1 3.9 4.8 8.3 8.3 0 0 1 .5 3.5 9.2 9.2 0 0 1-2.4 5.4l-.3.3-2.1 1.5a18.7 18.7 0 0 1-3.2 1.5 26 26 0 0 1-8.3 1c-.1 0-10.7-.7-15.3-10.6A24.4 24.4 0 0 1 36.2 55a37.2 37.2 0 0 1 5.7-14.7 31.4 31.4 0 0 1 4.2-4.8 32.2 32.2 0 0 0 8.2-10.2 17.6 17.6 0 0 0-2.2-19.4.1.1 0 0 0-.1-.1s4.4 15.7-6.1 19.1l-3.7 1.2a35 35 0 1 0 43.3 34 33.6 33.6 0 0 0-.6-6.3 31.8 31.8 0 0 0-1.4-5.3z"/></svg>