<svg xmlns="http://www.w3.org/2000/svg" width="1.7in" height="1.4in" viewBox="0 0 123.3 104.4"><path fill="#fff" d="M36.6 85.4h-3.8a4.6 4.6 0 0 1-4.2-5.7 46.1 46.1 0 0 1 2.2-5.1l1.9-3.6a1.7 1.7 0 0 0 .1-1c-3.2-15.4-6.6-30.8-9.9-46.2C22 19.2 21 14.6 20 10l-.2-.5h-15A4.8 4.8 0 0 1 4.4 0h19.7a3.9 3.9 0 0 1 3.7 2.5 40.3 40.3 0 0 1 1.4 4.6 24 24 0 0 0 .4 2.4h88.6a5 5 0 0 1 4.2 2 4.4 4.4 0 0 1 .9 2.7v38a4.9 4.9 0 0 1-4.4 4.8c-3.5.3-7 .8-10.5 1.2L99 59.3l-9.4 1.1-9.4 1.1-9.4 1.1-9.4 1.1-9.4 1.1-9.5 1.1h-.8c.3 1.1.5 2.2.8 3.3a6.2 6.2 0 0 1-.3 3.8L41 75.9h67.8a4.7 4.7 0 0 1 4.6 2.8 4.6 4.6 0 0 1-3.9 6.6h-3.8a9.6 9.6 0 0 1-1.3 19 9.6 9.6 0 0 1-1.6-19H39.5a9.6 9.6 0 0 1-1.5 19 9.6 9.6 0 0 1-1.4-19z"/></svg>