<svg xmlns="http://www.w3.org/2000/svg" width="2.1in" height="76.8" viewBox="0 0 154.5 55.7"><path fill="#fff" d="M38.9-.6a81 81 0 0 1 24 3.4A45.5 45.5 0 0 1 68 4.9c3.7 1.5 7.5 1.2 11.3 1.3s6.5-1.1 9.6-2.3A69.7 69.7 0 0 1 100.8.7a85.6 85.6 0 0 1 30.7 0c7.4 1.3 14.7 3.4 22 5.2a2 2 0 0 1 1 1.2v6.7a2.8 2.8 0 0 1-.8 1.5c-3.9 2.4-4.6 6.1-4.9 10.3a44.8 44.8 0 0 1-3.9 16.1c-1.6 3.5-3.4 6.9-6.9 8.7a37.4 37.4 0 0 1-8.9 3.5 39.8 39.8 0 0 1-21.1-.8c-5.3-1.7-9.4-5.4-13.1-9.5a57 57 0 0 1-11.6-22.7 3.5 3.5 0 0 0-3.8-2.9 32.3 32.3 0 0 0-4.4 0 3.6 3.6 0 0 0-3.8 2.8c-2.3 8.6-5.8 16.5-12 23a79.1 79.1 0 0 1-8.8 7.5c-3.3 2.4-7.2 2.7-11 3.2a43 43 0 0 1-15.6-.9c-8.1-2.1-13.1-7.3-15.5-15.1a71.3 71.3 0 0 1-3-17.1 4 4 0 0 0-1.8-3.6C.7 16-.2 13.4 0 10s.1-3.9 3.9-4.8L16.7 2A92.3 92.3 0 0 1 38.9-.6z"/></svg>