<svg xmlns="http://www.w3.org/2000/svg" width="1.4in" height="1.4in" viewBox="0 0 100.9 100.9"><path fill="#3c6d88" d="M50.5 0a50.5 50.5 0 1 0 50.4 50.5A50.5 50.5 0 0 0 50.5 0zM81 76.9a5.7 5.7 0 0 1-4.3 2H24.2a5.3 5.3 0 0 1-4.2-2A40.3 40.3 0 0 1 20 24a5.5 5.5 0 0 1 4.2-1.9h52.5A5.9 5.9 0 0 1 81 24a40.3 40.3 0 0 1 0 52.9z"/><path fill="#fff" d="M81 24a5.9 5.9 0 0 0-4.3-1.9H24.2A5.5 5.5 0 0 0 20 24a40.3 40.3 0 0 0 0 52.9 5.3 5.3 0 0 0 4.2 2h52.5a5.7 5.7 0 0 0 4.3-2A40.3 40.3 0 0 0 81 24zM43.3 66.4V34.6l26.1 15.8z"/><path fill="#3c6d88" d="M43.3 66.4l26.1-16-26.1-15.8z"/></svg>