<svg id="Layer_1" data-name="Layer 1" xmlns="http://www.w3.org/2000/svg" width="1.4in" height="1.4in" viewBox="0 0 100.9 100.9"><title>air-signs</title><path d="M22.2,14.2c-.5,0-.5,0-.5.4V33.5c0,.3.1.4.4.4H29V14.2H22.2Z" fill="none"/><path d="M38.4,39.5c0-.9-.1-1.8-.1-2.8a12.8,12.8,0,0,1,.6-3.3H39V13.5a.5.5,0,0,1,.3-.5h.9l3.1-.7,3-.8a23.7,23.7,0,0,0-6-6.6l-1.2.3-1.6.2-2.7.4L32.5,6l-3.4.2H18.7l-2.6-.2-1.9-.3L12,5.2,10.7,5a25.4,25.4,0,0,0-5.9,6.7h.1L6,12l1.6.4,1.8.3a8.6,8.6,0,0,0,1.7.3c.5.1.6.1.6.7v18a28.1,28.1,0,0,0,0,2.9c0,.3-.2.4-.5.4h-.5l-2,.4-1.8.4-1.7.4A25.5,25.5,0,0,0,11.6,43a78.7,78.7,0,0,1,27.8.1h0a22.9,22.9,0,0,1-.9-2.8C38.5,40,38.4,39.8,38.4,39.5ZM29,33.9H22.1c-.3,0-.4-.1-.4-.4V14.6c0-.4,0-.4.5-.4H29Z" fill="#3c6d87"/><path d="M67,77.8,77.1,67.5,87.4,77.9l8-8.1a24.1,24.1,0,0,0-4-8.2l-4,4.1L77.1,55.2,67,65.6c-.9-.8-1.7-1.7-2.5-2.5H51.6a22.7,22.7,0,0,0-3.7,12.6v.8l8.9-9Z" fill="#3c6d87"/><path d="M96.1,75.1l-8.7,8.8L77.1,73.5,67,83.9,56.8,73.6l-.3.2-7.8,7.9a24.1,24.1,0,0,0,4,8.2c1.3-1.4,2.7-2.8,4.1-4.1L67,96.1,77.1,85.8c3.1,3,6.1,6.1,9,9.1a23.4,23.4,0,0,0,10-19.2Z" fill="#3c6d87"/><path d="M50,51.8h.3c.2,0,.3,0,.3-.2V44.3a.5.5,0,0,0-.3-.5,5.8,5.8,0,0,1-1.2-1,7,7,0,0,1-1.7-2.5,8.6,8.6,0,0,1-.5-2.7,9.9,9.9,0,0,1,.2-1.7A6.5,6.5,0,0,1,48.5,33a8,8,0,0,1,2.9-2.2,6.9,6.9,0,0,1,2.4-.5h1.8l1.6.5a5.4,5.4,0,0,1,1.6,1,6.6,6.6,0,0,1,1.9,2.2,5.7,5.7,0,0,1,.7,2.2,7.6,7.6,0,0,1,0,3,6.7,6.7,0,0,1-1,2.3A7.6,7.6,0,0,1,58,43.9a.5.5,0,0,0-.3.5v7c0,.4,0,.4.5.4H76.5A22.3,22.3,0,0,0,78.3,44H68.8a.4.4,0,0,0,.1-.3c.2-.7.5-1.4.7-2a15.9,15.9,0,0,0,.6-3.8,8.2,8.2,0,0,0-.3-3.1,12,12,0,0,0-.8-2.7,14.5,14.5,0,0,0-2.6-4.3,12,12,0,0,0-2.6-2.4l-2.8-1.6L59.2,23l-2-.4a7.6,7.6,0,0,0-2.1-.3,13.4,13.4,0,0,0-2,0,13.5,13.5,0,0,0-2.9.5l-2.9,1a11.8,11.8,0,0,0-1.9,1.1l-2.2,1.7c-.5.4-.9,1-1.4,1.5A13.2,13.2,0,0,0,39.9,31a23.4,23.4,0,0,0-.9,2.4V35l1.8.3,2.3.5,2.8.8a23.7,23.7,0,0,1-6.5,6.5.3.3,0,0,0,.1.2,6.4,6.4,0,0,1,.2.7H30.2A22.3,22.3,0,0,0,32,51.8H50Z" fill="#84a4a5"/><path d="M45.9,36.6l-2.8-.8-2.3-.5L39,35V33.4h-.1a12.8,12.8,0,0,0-.6,3.3c0,1,.1,1.9.1,2.8s.1.5.1.8a22.9,22.9,0,0,0,.9,2.8A23.7,23.7,0,0,0,45.9,36.6Z" fill="none"/><path d="M57.9,56.4l6.6,6.7h2a23.8,23.8,0,0,0,8.2-7.9H33.8A23.8,23.8,0,0,0,42,63.1h9.6A23.6,23.6,0,0,1,57.9,56.4Z" fill="#84a4a5"/><path d="M57.9,56.4a23.6,23.6,0,0,0-6.3,6.7H64.5Z" fill="none"/></svg>