<svg id="Layer_1" data-name="Layer 1" xmlns="http://www.w3.org/2000/svg" width="1.4in" height="1.4in" viewBox="0 0 100.9 100.9"><title>burger-icon</title><circle cx="50.5" cy="50.5" r="44.6" fill="#fff" opacity="0.4"/><path d="M76.9,26.8H24c-.7,0-1.4.5-1.4,1.1v9.2H78.3V27.9A1.3,1.3,0,0,0,76.9,26.8Z" fill="#fff"/><path d="M76.9,45.1H24a1.3,1.3,0,0,0-1.4,1.2v9.2H78.3V46.3A1.3,1.3,0,0,0,76.9,45.1Z" fill="#fff"/><path d="M24,74.1H76.9A1.3,1.3,0,0,0,78.3,73V63.8H22.6V73C22.6,73.6,23.3,74.1,24,74.1Z" fill="#fff"/><path d="M50.5,10A40.5,40.5,0,1,1,10,50.5,40.5,40.5,0,0,1,50.5,10m0-5.4A45.9,45.9,0,1,0,96.3,50.5,46,46,0,0,0,50.5,4.6Z" fill="#fff"/></svg>