<svg id="Layer_1" data-name="Layer 1" xmlns="http://www.w3.org/2000/svg" width="1.4in" height="1.4in" viewBox="0 0 100.9 100.9"><title>cancel-button</title><g opacity="0.4"><circle cx="50.5" cy="50.5" r="45" fill="#fff"/></g><path d="M60.1,50.5,74.8,35.8a7.5,7.5,0,0,0,2.1-5.1,7.5,7.5,0,0,0-2.1-5,7.2,7.2,0,0,0-5-2,7,7,0,0,0-5,2L50.1,40.4,36.2,26.6a7,7,0,0,0-5-2.1,7.2,7.2,0,0,0-7.1,7.1,6.9,6.9,0,0,0,2.1,5L40,50.5,26.2,64.4a6.7,6.7,0,0,0-2.1,5,7.2,7.2,0,0,0,2,5,7.4,7.4,0,0,0,5.1,2,7.2,7.2,0,0,0,5-2L50.1,60.5,64.8,75.2a7.1,7.1,0,0,0,5,2.1,7.2,7.2,0,0,0,7.1-7.1,7.1,7.1,0,0,0-2.1-5Z" fill="#fff"/><path d="M50.5,10A40.5,40.5,0,1,1,10,50.5,40.5,40.5,0,0,1,50.5,10m0-5.4A45.9,45.9,0,1,0,96.3,50.5,46,46,0,0,0,50.5,4.6Z" fill="#fff"/></svg>