<svg xmlns="http://www.w3.org/2000/svg"><symbol id="air-signs" viewBox="0 0 100.9 100.9"><path fill="none" d="M22.2 14.2c-.5 0-.5 0-.5.4v18.9c0 .3.1.4.4.4H29V14.2h-6.8z"/><path fill="#3c6d87" d="M38.4 39.5c0-.9-.1-1.8-.1-2.8a12.8 12.8 0 0 1 .6-3.3h.1V13.5a.5.5 0 0 1 .3-.5h.9l3.1-.7 3-.8a23.7 23.7 0 0 0-6-6.6l-1.2.3-1.6.2-2.7.4-2.3.2-3.4.2H18.7L16.1 6l-1.9-.3-2.2-.5-1.3-.2a25.4 25.4 0 0 0-5.9 6.7h.1L6 12l1.6.4 1.8.3a8.6 8.6 0 0 0 1.7.3c.5.1.6.1.6.7v18a28.1 28.1 0 0 0 0 2.9c0 .3-.2.4-.5.4h-.5l-2 .4-1.8.4-1.7.4a25.5 25.5 0 0 0 6.4 6.8 78.7 78.7 0 0 1 27.8.1 22.9 22.9 0 0 1-.9-2.8c0-.3-.1-.5-.1-.8zM29 33.9h-6.9c-.3 0-.4-.1-.4-.4V14.6c0-.4 0-.4.5-.4H29zm38 43.9l10.1-10.3 10.3 10.4 8-8.1a24.1 24.1 0 0 0-4-8.2l-4 4.1-10.3-10.5L67 65.6c-.9-.8-1.7-1.7-2.5-2.5H51.6a22.7 22.7 0 0 0-3.7 12.6v.8l8.9-9z"/><path fill="#3c6d87" d="M96.1 75.1l-8.7 8.8-10.3-10.4L67 83.9 56.8 73.6l-.3.2-7.8 7.9a24.1 24.1 0 0 0 4 8.2c1.3-1.4 2.7-2.8 4.1-4.1L67 96.1l10.1-10.3c3.1 3 6.1 6.1 9 9.1a23.4 23.4 0 0 0 10-19.2z"/><path fill="#84a4a5" d="M50 51.8h.3c.2 0 .3 0 .3-.2v-7.3a.5.5 0 0 0-.3-.5 5.8 5.8 0 0 1-1.2-1 7 7 0 0 1-1.7-2.5 8.6 8.6 0 0 1-.5-2.7 9.9 9.9 0 0 1 .2-1.7 6.5 6.5 0 0 1 1.4-2.9 8 8 0 0 1 2.9-2.2 6.9 6.9 0 0 1 2.4-.5h1.8l1.6.5a5.4 5.4 0 0 1 1.6 1 6.6 6.6 0 0 1 1.9 2.2 5.7 5.7 0 0 1 .7 2.2 7.6 7.6 0 0 1 0 3 6.7 6.7 0 0 1-1 2.3 7.6 7.6 0 0 1-2.4 2.4.5.5 0 0 0-.3.5v7c0 .4 0 .4.5.4h18.3a22.3 22.3 0 0 0 1.8-7.8h-9.5a.4.4 0 0 0 .1-.3c.2-.7.5-1.4.7-2a15.9 15.9 0 0 0 .6-3.8 8.2 8.2 0 0 0-.3-3.1 12 12 0 0 0-.8-2.7 14.5 14.5 0 0 0-2.6-4.3 12 12 0 0 0-2.6-2.4l-2.8-1.6-1.9-.8-2-.4a7.6 7.6 0 0 0-2.1-.3 13.4 13.4 0 0 0-2 0 13.5 13.5 0 0 0-2.9.5l-2.9 1a11.8 11.8 0 0 0-1.9 1.1l-2.2 1.7c-.5.4-.9 1-1.4 1.5a13.2 13.2 0 0 0-1.9 2.9 23.4 23.4 0 0 0-.9 2.4V35l1.8.3 2.3.5 2.8.8a23.7 23.7 0 0 1-6.5 6.5.3.3 0 0 0 .1.2 6.4 6.4 0 0 1 .2.7h-9.5a22.3 22.3 0 0 0 1.8 7.8h18z"/><path fill="none" d="M45.9 36.6l-2.8-.8-2.3-.5L39 35v-1.6h-.1a12.8 12.8 0 0 0-.6 3.3c0 1 .1 1.9.1 2.8s.1.5.1.8a22.9 22.9 0 0 0 .9 2.8 23.7 23.7 0 0 0 6.5-6.5z"/><path fill="#84a4a5" d="M57.9 56.4l6.6 6.7h2a23.8 23.8 0 0 0 8.2-7.9H33.8a23.8 23.8 0 0 0 8.2 7.9h9.6a23.6 23.6 0 0 1 6.3-6.7z"/><path fill="none" d="M57.9 56.4a23.6 23.6 0 0 0-6.3 6.7h12.9z"/></symbol><symbol id="instagram-icon" viewBox="0 0 100.9 100.9"><path fill="#fff" d="M50.5 30a20.5 20.5 0 1 0 20.4 20.5A20.5 20.5 0 0 0 50.5 30zm0 34.6a14.1 14.1 0 1 1 14.1-14.1 14.1 14.1 0 0 1-14.1 14.1zm21.3-42.5a4.2 4.2 0 1 0 0 8.3 4.2 4.2 0 0 0 0-8.3z"/><rect width="83.1" height="83.14" x="8.9" y="8.9" fill="none" stroke="#fff" stroke-miterlimit="10" stroke-width="6.58" rx="26.7"/></symbol><symbol id="gemini-symbol" viewBox="0 0 100.9 100.9"><path fill="#fff" d="M77.5 70.9l-3.3-.6V31.6c0-.5.2-.7.7-.8l1.5-.3 5.5-1.3 5.3-1.4A44.3 44.3 0 0 0 76.6 16l-2.2.4-2.8.5-4.7.7-4.1.4c-2 .2-4 .4-6 .4H41.6l-3.3-.2-4.6-.4-3.3-.4-4-.6-2.1-.4a42.4 42.4 0 0 0-10.6 12h.2l2 .5 2.8.7 3.1.6 3 .6c1 .1 1.1.2 1.1 1.1v32.5c0 1.7-.1 3.4 0 5.1s-.3.7-.8.8h-.9l-3.5.7-3.3.8-2.9.7a43.4 43.4 0 0 0 11.3 12.2 140.2 140.2 0 0 1 49.2.2 44.5 44.5 0 0 0 11.5-11.8l-4.9-1.3zm-21-2.6H44.4c-.6 0-.7-.2-.7-.7v-34c0-.8 0-.8.9-.8h11.9z"/></symbol><symbol id="aquarius-symbol" viewBox="0 0 100.9 100.9"><path fill="#fff" d="M41.5 54.4l18.1-18.7 18.2 18.8L91.9 40a40.7 40.7 0 0 0-7.1-14.8l-7 7.2-18.2-18.7-18.1 18.6-16-16.5A42.8 42.8 0 0 0 7.8 50.5v1.4l15.7-16.2z"/><path fill="#fff" d="M93.2 50.5c0-.4-.1-.7-.1-1L77.8 65.3 59.6 46.6 41.5 65.2 23.6 46.7l-.6.4L9.2 61.4A41.3 41.3 0 0 0 16.3 76l7.2-7.4 18 18.6 18.1-18.6L75.5 85a42.5 42.5 0 0 0 17.7-34.5z"/></symbol><symbol id="cancel-button" viewBox="0 0 100.9 100.9"><circle cx="50.5" cy="50.5" r="45" fill="#fff" opacity=".4"/><path fill="#fff" d="M60.1 50.5l14.7-14.7a7.5 7.5 0 0 0 2.1-5.1 7.5 7.5 0 0 0-2.1-5 7.2 7.2 0 0 0-5-2 7 7 0 0 0-5 2L50.1 40.4 36.2 26.6a7 7 0 0 0-5-2.1 7.2 7.2 0 0 0-7.1 7.1 6.9 6.9 0 0 0 2.1 5L40 50.5 26.2 64.4a6.7 6.7 0 0 0-2.1 5 7.2 7.2 0 0 0 2 5 7.4 7.4 0 0 0 5.1 2 7.2 7.2 0 0 0 5-2l13.9-13.9 14.7 14.7a7.1 7.1 0 0 0 5 2.1 7.2 7.2 0 0 0 7.1-7.1 7.1 7.1 0 0 0-2.1-5z"/><path fill="#fff" d="M50.5 10A40.5 40.5 0 1 1 10 50.5 40.5 40.5 0 0 1 50.5 10m0-5.4a45.9 45.9 0 1 0 45.8 45.9A46 46 0 0 0 50.5 4.6z"/></symbol><symbol id="burger-icon" viewBox="0 0 100.9 100.9"><circle cx="50.5" cy="50.5" r="44.6" fill="#fff" opacity=".4"/><path fill="#fff" d="M76.9 26.8H24c-.7 0-1.4.5-1.4 1.1v9.2h55.7v-9.2a1.3 1.3 0 0 0-1.4-1.1zm0 18.3H24a1.3 1.3 0 0 0-1.4 1.2v9.2h55.7v-9.2a1.3 1.3 0 0 0-1.4-1.2zM24 74.1h52.9a1.3 1.3 0 0 0 1.4-1.1v-9.2H22.6V73c0 .6.7 1.1 1.4 1.1z"/><path fill="#fff" d="M50.5 10A40.5 40.5 0 1 1 10 50.5 40.5 40.5 0 0 1 50.5 10m0-5.4a45.9 45.9 0 1 0 45.8 45.9A46 46 0 0 0 50.5 4.6z"/></symbol><symbol id="libra-symbol" viewBox="0 0 100.9 100.9"><path fill="#fff" d="M76.3 52.8a1.1 1.1 0 0 0 .1-.5c.4-1.2.8-2.4 1.3-3.6a26 26 0 0 0 1-6.8 15.8 15.8 0 0 0-.5-5.7 43.4 43.4 0 0 0-1.4-4.8 26.3 26.3 0 0 0-4.5-7.6 24.3 24.3 0 0 0-4.7-4.4 49.9 49.9 0 0 0-5-2.9 15.8 15.8 0 0 0-3.4-1.3 22.5 22.5 0 0 0-3.5-.9 23.5 23.5 0 0 0-3.7-.5c-1.2-.1-2.4.1-3.6.1a18.2 18.2 0 0 0-5.2.8l-5.1 1.9a15 15 0 0 0-3.2 1.9 37.9 37.9 0 0 0-4 3c-.9.8-1.6 1.8-2.5 2.7a22.8 22.8 0 0 0-3.4 5.3 37.5 37.5 0 0 0-1.6 4.3 17.7 17.7 0 0 0-1.1 6 40.1 40.1 0 0 0 .1 4.9 7.7 7.7 0 0 0 .2 1.5 33.8 33.8 0 0 0 1.7 5.4 5.6 5.6 0 0 1 .4 1.2H24c-2.7 0-11.7.1-16.2 0a41.6 41.6 0 0 0 3.3 14.1h32.4c.3 0 .4-.1.4-.4s.1-2 .2-3c0-3.3-.1-6.7 0-10.1a1.1 1.1 0 0 0-.5-.9 21.1 21.1 0 0 1-2.3-1.9 10.6 10.6 0 0 1-2.9-4.5 10.9 10.9 0 0 1-.9-4.7 15.5 15.5 0 0 1 .4-3.1 10.4 10.4 0 0 1 2.4-5.2 12.8 12.8 0 0 1 5.2-4 10.2 10.2 0 0 1 4.2-.9 16.7 16.7 0 0 1 3.2.2l2.7.8a14.9 14.9 0 0 1 3 1.8 12 12 0 0 1 3.3 4.1 10.6 10.6 0 0 1 1.3 3.9 14 14 0 0 1-.1 5.4 13.1 13.1 0 0 1-1.7 4 14 14 0 0 1-4.2 4.2 1 1 0 0 0-.6.9c.1 4.2 0 8.4 0 12.6 0 .8 0 .8.8.8h32.4a41.6 41.6 0 0 0 3.3-14.1zM14.4 73h-.1a42.8 42.8 0 0 0 14.5 14.2h43.4A43.7 43.7 0 0 0 86.7 73H14.4z"/></symbol><symbol id="purchase-white" viewBox="0 0 123.3 104.4"><path fill="#fff" d="M36.6 85.4h-3.8a4.6 4.6 0 0 1-4.2-5.7 46.1 46.1 0 0 1 2.2-5.1l1.9-3.6a1.7 1.7 0 0 0 .1-1c-3.2-15.4-6.6-30.8-9.9-46.2C22 19.2 21 14.6 20 10l-.2-.5h-15A4.8 4.8 0 0 1 4.4 0h19.7a3.9 3.9 0 0 1 3.7 2.5 40.3 40.3 0 0 1 1.4 4.6 24 24 0 0 0 .4 2.4h88.6a5 5 0 0 1 4.2 2 4.4 4.4 0 0 1 .9 2.7v38a4.9 4.9 0 0 1-4.4 4.8c-3.5.3-7 .8-10.5 1.2L99 59.3l-9.4 1.1-9.4 1.1-9.4 1.1-9.4 1.1-9.4 1.1-9.5 1.1h-.8c.3 1.1.5 2.2.8 3.3a6.2 6.2 0 0 1-.3 3.8L41 75.9h67.8a4.7 4.7 0 0 1 4.6 2.8 4.6 4.6 0 0 1-3.9 6.6h-3.8a9.6 9.6 0 0 1-1.3 19 9.6 9.6 0 0 1-1.6-19H39.5a9.6 9.6 0 0 1-1.5 19 9.6 9.6 0 0 1-1.4-19z"/></symbol><symbol id="view-white" viewBox="0 0 154.5 55.7"><path fill="#fff" d="M38.9-.6a81 81 0 0 1 24 3.4A45.5 45.5 0 0 1 68 4.9c3.7 1.5 7.5 1.2 11.3 1.3s6.5-1.1 9.6-2.3A69.7 69.7 0 0 1 100.8.7a85.6 85.6 0 0 1 30.7 0c7.4 1.3 14.7 3.4 22 5.2a2 2 0 0 1 1 1.2v6.7a2.8 2.8 0 0 1-.8 1.5c-3.9 2.4-4.6 6.1-4.9 10.3a44.8 44.8 0 0 1-3.9 16.1c-1.6 3.5-3.4 6.9-6.9 8.7a37.4 37.4 0 0 1-8.9 3.5 39.8 39.8 0 0 1-21.1-.8c-5.3-1.7-9.4-5.4-13.1-9.5a57 57 0 0 1-11.6-22.7 3.5 3.5 0 0 0-3.8-2.9 32.3 32.3 0 0 0-4.4 0 3.6 3.6 0 0 0-3.8 2.8c-2.3 8.6-5.8 16.5-12 23a79.1 79.1 0 0 1-8.8 7.5c-3.3 2.4-7.2 2.7-11 3.2a43 43 0 0 1-15.6-.9c-8.1-2.1-13.1-7.3-15.5-15.1a71.3 71.3 0 0 1-3-17.1 4 4 0 0 0-1.8-3.6C.7 16-.2 13.4 0 10s.1-3.9 3.9-4.8L16.7 2A92.3 92.3 0 0 1 38.9-.6z"/></symbol><symbol id="youtube-icon" viewBox="0 0 100.9 100.9"><path fill="#fff" d="M81 24a5.9 5.9 0 0 0-4.3-1.9H24.2A5.5 5.5 0 0 0 20 24a40.3 40.3 0 0 0 0 52.9 5.3 5.3 0 0 0 4.2 2h52.5a5.7 5.7 0 0 0 4.3-2A40.3 40.3 0 0 0 81 24zM43.3 66.4V34.6l26.1 15.8z"/></symbol><symbol id="facebook-icon" viewBox="0 0 100.9 100.9"><path fill="#fff" d="M69 20.7c0-1.7 0-1.8-1.8-1.9-3.7-.1-7.5-.3-11.2-.1a13.4 13.4 0 0 0-8.5 3.9A15.8 15.8 0 0 0 42.9 34c-.1 3.1-.1 6.3-.1 9.4v1H32.7c-.5 0-.8 0-.8.7v11.4c0 .7.3.8.8.7h10.2v29.3a46.7 46.7 0 0 0 7.6.7 52.7 52.7 0 0 0 5.6-.4V57.2h10c.6 0 .8-.2.9-.9l1.5-11c.1-.9 0-1-.9-1H56.1c0-3-.1-6 0-8.9s1.8-4.8 5-4.9h7.1c.6 0 .8-.2.8-.8z"/><path d="M50.5 0zm-2.1.1z"/></symbol><symbol id="logo-white" viewBox="0 0 100.9 100.9"><path fill="#fff" d="M83.5 48.5c-.1-.1-.1-.3-.2-.5s-.2-.3-.2-.5a31.6 31.6 0 0 0-4.4-6.4l-.3-.4A23.5 23.5 0 0 0 59 33.8a27.8 27.8 0 0 0-5 1.1l-3.4 1.6-.6.3a12.7 12.7 0 0 0-5 6.8 13 13 0 0 0-.5 5.2 12.9 12.9 0 0 0 14.3 11.4h1.1a9.5 9.5 0 0 1 5.8 1.2 8.9 8.9 0 0 1 3.9 4.8 8.3 8.3 0 0 1 .5 3.5 9.2 9.2 0 0 1-2.4 5.4l-.3.3-2.1 1.5a18.7 18.7 0 0 1-3.2 1.5 26 26 0 0 1-8.3 1c-.1 0-10.7-.7-15.3-10.6A24.4 24.4 0 0 1 36.2 55a37.2 37.2 0 0 1 5.7-14.7 31.4 31.4 0 0 1 4.2-4.8 32.2 32.2 0 0 0 8.2-10.2 17.6 17.6 0 0 0-2.2-19.4.1.1 0 0 0-.1-.1s4.4 15.7-6.1 19.1l-3.7 1.2a35 35 0 1 0 43.3 34 33.6 33.6 0 0 0-.6-6.3 31.8 31.8 0 0 0-1.4-5.3z"/></symbol></svg>