<svg id="Layer_1" data-name="Layer 1" xmlns="http://www.w3.org/2000/svg" width="0.2in" height="0.2in" viewBox="0 0 16 16"><title>logo-16</title><path d="M12.7,7.1h-.1L12,6h0A3.2,3.2,0,0,0,9.2,5H8.5L8,5.4H7.9a2.6,2.6,0,0,0-.7,1h0c0,.2-.1.5,0,.7a1.8,1.8,0,0,0,2,1.6h.1a1.5,1.5,0,0,1,.9.2,1,1,0,0,1,.5.6,1.1,1.1,0,0,1,.1.5h0a1.3,1.3,0,0,1-.4.7h0l-.3.2-.5.2H8.5A2.8,2.8,0,0,1,6.3,9.9,3.2,3.2,0,0,1,6,8a5.6,5.6,0,0,1,.8-2.1l.6-.7A3.4,3.4,0,0,0,8.5,3.8,2.5,2.5,0,0,0,8.2,1h0s.6,2.2-.9,2.7l-.5.2A5,5,0,0,0,3,8.7a5,5,0,0,0,5,5,5.1,5.1,0,0,0,5-5c0-.3-.1-.6-.1-.9S12.8,7.3,12.7,7.1Z" fill="#fff"/></svg>