<svg id="Layer_1" data-name="Layer 1" xmlns="http://www.w3.org/2000/svg" width="1.4in" height="1.4in" viewBox="0 0 100 100"><title>logo</title><path d="M79.2,44.1a1.7,1.7,0,0,0-.2-.5c0-.1-.1-.2-.1-.3A32.7,32.7,0,0,0,75,37.5l-.3-.3a21,21,0,0,0-17.2-6.1,20.7,20.7,0,0,0-4.3,1,17.3,17.3,0,0,0-3.1,1.4l-.5.3a10.7,10.7,0,0,0-4.4,6h-.1a13.5,13.5,0,0,0-.4,4.5A11.5,11.5,0,0,0,57.4,54.5h1a7.6,7.6,0,0,1,5.1,1.1,7.3,7.3,0,0,1,3.4,4.1,7.1,7.1,0,0,1,.4,3.2h0a7.7,7.7,0,0,1-2,4.7l-.3.3-1.9,1.3a14.7,14.7,0,0,1-2.8,1.4,24.6,24.6,0,0,1-7.3.8c-.2,0-9.5-.6-13.6-9.3a21.7,21.7,0,0,1-2-12.2,32.9,32.9,0,0,1,5-13,25.4,25.4,0,0,1,3.7-4.3,26.8,26.8,0,0,0,7.3-9A15.6,15.6,0,0,0,51.5,6.4c-.1,0-.1,0-.1-.1s3.9,13.9-5.5,16.9l-3.2,1.1A30.9,30.9,0,1,0,81,54.4a34.3,34.3,0,0,0-.5-5.6A25.2,25.2,0,0,0,79.2,44.1Z" fill="#fff"/></svg>