<svg id="Layer_1" data-name="Layer 1" xmlns="http://www.w3.org/2000/svg" width="0.9in" height="0.9in" viewBox="0 0 64 64"><title>logo-64</title><path d="M50.7,28.3c0-.2-.1-.3-.1-.4s-.1-.1-.1-.2A18.5,18.5,0,0,0,48,24l-.2-.2a13.1,13.1,0,0,0-11-3.9,8.9,8.9,0,0,0-2.8.7l-1.9.8-.4.2a7.6,7.6,0,0,0-2.8,3.8h0a7,7,0,0,0-.3,2.9,7.4,7.4,0,0,0,8.1,6.5h.7a5.5,5.5,0,0,1,3.3.7,5.2,5.2,0,0,1,2.1,2.7,4.4,4.4,0,0,1,.3,2h0a5.8,5.8,0,0,1-1.3,3.1h-.2a4.7,4.7,0,0,1-1.2.9,15.1,15.1,0,0,1-1.8.9,15.1,15.1,0,0,1-4.7.5,10.8,10.8,0,0,1-8.7-6,13.9,13.9,0,0,1-1.3-7.8,21.2,21.2,0,0,1,3.3-8.3,11.8,11.8,0,0,1,2.3-2.7,18.9,18.9,0,0,0,4.7-5.8,10.1,10.1,0,0,0-1.3-11h0s2.5,8.9-3.5,10.9l-2.1.6A19.8,19.8,0,1,0,51.8,34.8a21.9,21.9,0,0,0-.3-3.6A24.5,24.5,0,0,0,50.7,28.3Z" fill="#fff"/><path d="M32,54.6a19.8,19.8,0,0,1-4.7-39.1l2.1-.6c6-2,3.5-10.9,3.5-10.9h0a10.1,10.1,0,0,1,1.3,11,18.9,18.9,0,0,1-4.7,5.8,11.8,11.8,0,0,0-2.3,2.7,21.2,21.2,0,0,0-3.3,8.3,13.9,13.9,0,0,0,1.3,7.8,10.8,10.8,0,0,0,8.7,6,15.1,15.1,0,0,0,4.7-.5,15.1,15.1,0,0,0,1.8-.9,4.7,4.7,0,0,0,1.2-.9h.2a5.8,5.8,0,0,0,1.3-3.1h0a4.4,4.4,0,0,0-.3-2,5.2,5.2,0,0,0-2.1-2.7,5.5,5.5,0,0,0-3.3-.7h-.7a7.4,7.4,0,0,1-8.1-6.5,7,7,0,0,1,.3-2.9h0a7.6,7.6,0,0,1,2.8-3.8l.4-.2,1.9-.8a8.9,8.9,0,0,1,2.8-.7,13.1,13.1,0,0,1,11,3.9l.2.2a18.5,18.5,0,0,1,2.5,3.7c0,.1,0,.1.1.2s.1.2.1.4a24.5,24.5,0,0,1,.8,2.9,21.9,21.9,0,0,1,.3,3.6A19.8,19.8,0,0,1,32,54.6Z" fill="#fff"/></svg>