<svg id="Layer_1" data-name="Layer 1" xmlns="http://www.w3.org/2000/svg" width="0.4in" height="0.4in" viewBox="0 0 32 32"><title>logo-32</title><circle cx="16" cy="16" r="16" fill="#fff"/><path d="M16,0A16,16,0,1,0,32,16,16,16,0,0,0,16,0Zm0,27.3A9.9,9.9,0,0,1,13.7,7.8l1-.4c3-.9,1.7-5.4,1.7-5.4h.1a4.9,4.9,0,0,1,.6,5.5,8.7,8.7,0,0,1-2.3,2.8,5.3,5.3,0,0,0-1.2,1.4A9.6,9.6,0,0,0,12,16a6.7,6.7,0,0,0,.6,3.9c1.3,2.8,4.3,2.9,4.4,3l2.3-.3.9-.4.6-.5h.1a2,2,0,0,0,.6-1.5h.1a3.6,3.6,0,0,0-.2-1,2.6,2.6,0,0,0-1.1-1.4,2.9,2.9,0,0,0-1.6-.3h-.3a3.6,3.6,0,0,1-4.1-3.2,6.1,6.1,0,0,1,.1-1.4h.1a3.3,3.3,0,0,1,1.4-1.9H16l1-.4a3.5,3.5,0,0,1,1.4-.3,6.5,6.5,0,0,1,5.5,1.9H24a9.4,9.4,0,0,1,1.2,1.8V14h.1a8,8,0,0,1,.3,1.5,5.5,5.5,0,0,1,.2,1.8A9.9,9.9,0,0,1,16,27.3Z" fill="#384d65"/></svg>