<svg id="Layer_1" data-name="Layer 1" xmlns="http://www.w3.org/2000/svg" width="0.4in" height="0.4in" viewBox="0 0 32 32"><title>logo-32</title><path d="M25.4,14.1h-.1v-.2A9.4,9.4,0,0,0,24,12h-.1A6.5,6.5,0,0,0,18.4,10a3.5,3.5,0,0,0-1.4.3l-1,.4h-.1a3.3,3.3,0,0,0-1.4,1.9h-.1a6.1,6.1,0,0,0-.1,1.4,3.6,3.6,0,0,0,4.1,3.2h.3a2.9,2.9,0,0,1,1.6.3,2.6,2.6,0,0,1,1.1,1.4,3.6,3.6,0,0,1,.2,1h-.1a2,2,0,0,1-.6,1.5h-.1l-.6.5-.9.4-2.3.3c-.1-.1-3.1-.2-4.4-3A6.7,6.7,0,0,1,12,16a9.6,9.6,0,0,1,1.6-4.2,5.3,5.3,0,0,1,1.2-1.4,8.7,8.7,0,0,0,2.3-2.8,4.9,4.9,0,0,0-.6-5.5h-.1s1.3,4.5-1.7,5.4l-1,.4A9.9,9.9,0,0,0,16,27.3a9.9,9.9,0,0,0,9.9-9.9,5.5,5.5,0,0,0-.2-1.8A8,8,0,0,0,25.4,14.1Z" fill="#fff"/></svg>