<svg id="purcahse" xmlns="http://www.w3.org/2000/svg" width="8in" height="6.8in" viewBox="0 0 576 487.5"><title>purchase-white</title><g id="_3wGyDn" data-name="3wGyDn"><path d="M170.9,398.7c-6.5,0-12.2.2-17.8-.1-13.2-.7-23.2-14.2-19.3-26.8,2.5-8.2,6.5-16,10.2-23.8,2.6-5.7,5.9-11,8.7-16.6a7.1,7.1,0,0,0,.7-4.5L107.2,111.4c-4.7-21.6-9.3-43.1-14-64.7-.1-.8-.5-1.5-.7-2.4H88.7c-22.1,0-44.2.1-66.3,0C9.3,44.2-.3,34.1,0,21,.3,10.3,10,.2,20.6.1,51.2,0,81.8-.1,112.4.2c8,0,14.6,4.1,17.7,11.6s4.2,14.2,6.1,21.4c.9,3.5,1.3,7.2,2,11.1H552c8.2-.1,14.8,2.7,19.7,9.2A20.9,20.9,0,0,1,576,66.2V244c0,11.5-9,20.8-20.4,22-16.5,1.7-32.9,3.8-49.3,5.7-14.6,1.8-29.2,3.4-43.8,5.1L418.3,282l-43.8,5.1-43.9,5.1-43.8,5.2-43.9,5.1-44.4,5.2-3.6.6c1.2,5.3,2.3,10.4,3.5,15.4s1.3,12-1.4,17.7-3.7,8.5-5.7,13h4.1q156.3,0,312.6,0c10,0,17.3,4.3,21.7,13.1,6.6,13.5-3.3,30.3-18.3,31.1-5.6.3-11.3.1-17.6.1,28.6,5.9,41.2,31,37.3,52.5s-22.5,36.2-43.5,36.3a44.5,44.5,0,0,1-44-36.7c-3.9-21.7,9.3-46.6,36.7-52h-296c27.8,5.7,40.6,30.7,36.7,52.4s-22.5,36.2-43.6,36.3a44.5,44.5,0,0,1-44-36.7C129.6,429.3,142.5,404.4,170.9,398.7Z" fill="#fff"/></g></svg>