<svg xmlns="http://www.w3.org/2000/svg" width="6.5in" height="2.4in" viewBox="0 0 471.5 169.8"><title>View-white</title><g id="view"><g id="RgSoY5"><path d="M118.7.3A259.5,259.5,0,0,1,192,10.5c5.4,1.6,10.4,4.4,15.6,6.6,11.1,4.7,22.8,3.8,34.4,4s19.7-3.5,29.2-7a228.8,228.8,0,0,1,36.5-9.9,259.5,259.5,0,0,1,93.4.1c22.7,4.1,45,10.4,67.4,15.9a5,5,0,0,1,2.8,3.6c.3,6.9.3,13.7,0,20.5a6.3,6.3,0,0,1-2.4,4.5c-11.9,7.3-14,18.6-14.8,31.5a143.2,143.2,0,0,1-12,49.2c-4.7,10.6-10.4,20.9-21.1,26.4a122.1,122.1,0,0,1-27.2,10.7c-21.5,5.2-43.2,3.9-64.2-2.5-16.2-5-28.8-16.4-39.9-29C272,115,261.3,91.4,254.3,65.9c-1.6-6.1-5.6-9-11.8-9H229c-5.9.1-9.9,3.1-11.5,8.8-7,26.1-17.7,50.4-36.4,70.2-8.1,8.5-17.7,15.6-27.1,22.6s-21.9,8.5-33.6,9.9a127.4,127.4,0,0,1-47.6-2.9c-24.6-6.4-39.8-22-47.1-46a209.5,209.5,0,0,1-9.2-52c-.3-4.6-1.3-8.4-5.4-11C2.2,50.9-.7,43.1.2,32.6S.4,20.8,11.8,18L50.9,8.2C73.1,2.5,95.8.6,118.7.3Z" fill="#fff"/></g></g></svg>